<?xml version="1.0" encoding="utf-8" standalone="no"?>
<!-- Created with Vectornator for iOS (http://vectornator.io/) -->
<svg height="100%" xmlns:xlink="http://www.w3.org/1999/xlink" width="100%" xmlns:vectornator="http://vectornator.io" version="1.2" viewBox="0 0 180 180" baseProfile="tiny-ps" stroke-linejoin="round" stroke-linecap="round" fill-rule="nonzero" xmlns="http://www.w3.org/2000/svg">
  <title>Thans</title>
<metadata>
</metadata>
<defs />
<g id="Layer 1">
<path d="M49.1772+48.2639C33.9943+48.2639+20.0379+51.0756+14.9771+52.9502C8.01853+54.8247+7.465+59.4548+7.465+63.2038C7.465+66.9434+8.09759+69.8208+10.628+71.6954C13.1584+73.5698+13.791+77.4876+13.791+87.7974C13.791+121.539+28.9733+131.736+51.7468+131.736C74.5203+131.736+83.3767+114.922+83.3767+88.6784C84.0093+82.1177+84.6419+73.7385+89.7027+73.7385C94.7635+73.7385+94.7635+82.1177+96.0286+88.6784C96.0286+115.859+104.885+131.736+127.659+131.736C150.432+131.736+165.614+121.548+165.614+87.7974C165.614+78.4248+166.209+73.5698+169.372+71.6954C171.902+69.8208+172.535+66.9434+172.535+63.2038C172.535+59.4548+171.384+54.8247+164.425+52.9502C159.364+51.0756+145.409+48.2639+130.227+48.2639C115.045+48.2639+98.559+56.7554+89.7027+56.7554C80.8463+56.7554+64.3589+48.2639+49.1772+48.2639ZM46.607+59.6797C70.6457+59.6797+75.0707+64.2535+75.077+84.8732C75.7033+105.493+68.8662+119.439+51.1534+119.439C33.4414+119.439+22.0938+111.229+22.0938+87.7974C22.0938+69.9989+18.1401+59.6891+46.607+59.6797ZM132.795+59.6797C160.636+59.6891+157.315+69.9989+157.315+87.7974C157.315+111.238+145.966+119.439+128.253+119.439C110.54+119.439+104.328+105.493+104.328+84.8732C104.328+64.2535+108.763+59.6797+132.795+59.6797Z" fill-rule="evenodd" fill="#000000" />
</g>
</svg>